####
#
# OBJ File Generated by Meshlab
#
####
# Object headset_half_res_updated.obj
#
# Vertices: 193
# Faces: 368
#
####
mtllib ./headset_half_res_updated.obj.mtl

vn -0.1022295 0.0017524 -0.9947593
v 1.3171978 2.9941304 -2.3502402
vn 0.0142423 0.0263957 -0.9995502
v 4.5695138 4.3660274 -2.4053056
vn -0.0019735 0.0558299 -0.9984384
v 3.1932888 4.9375696 -2.4053054
vn -0.0193533 -0.0011405 -0.9998121
v 5.1385126 2.9887502 -2.4053059
vn -0.0220051 -0.0066788 -0.9997356
v 4.5669708 1.6125244 -2.4053054
vn -0.0097276 -0.0765495 -0.9970183
v 3.1879086 1.1162550 -2.3502405
vn -0.0680160 0.0577486 -0.9960115
v 1.8686987 4.3184056 -2.3502407
vn 0.0205684 0.0606359 -0.9979480
v 3.7313483 4.4212117 -2.4352422
vn 0.0534550 0.0045054 -0.9985601
v 4.6449022 3.5044222 -2.3955631
vn 0.0290676 -0.0320253 -0.9990643
v 4.2121854 1.9835037 -2.3999746
vn -0.0701490 -0.0704273 -0.9950473
v 1.8636323 1.6677560 -2.3502405
vn 0.0038933 -0.0072782 -0.9999660
v 3.4552457 3.1821523 -2.5696321
vn 0.8704897 0.3440695 0.3519430
v 8.1751690 3.8417115 0.1973177
vn 0.9992938 0.0219258 -0.0305164
v 8.1277819 2.9905472 -1.2025393
vn 0.8784592 0.4766384 -0.0335469
v 8.1277819 3.8377888 -0.5938020
vn 0.9054956 0.0556614 0.4206894
v 8.1503677 2.3048005 0.4540489
vn -0.1288134 0.6686555 0.7323299
v 7.6446891 3.1140871 0.7683677
vn 0.9996407 0.0101268 -0.0248168
v 8.1649609 2.1433074 -0.5938058
vn 0.0127415 -0.0711007 -0.9973878
v -3.1896930 1.0435266 -2.4053054
vn 0.0607197 0.0017284 -0.9981534
v -1.2444696 2.9923458 -2.4053054
vn 0.0851089 0.1046473 -0.9908609
v -1.8160104 4.3685708 -2.4053054
vn -0.0458206 0.0200403 -0.9987487
v -5.0657840 2.9869654 -2.3502405
vn -0.0170180 0.0070154 -0.9998306
v -4.5669708 1.6125245 -2.4053056
vn 0.0142410 -0.0263941 -0.9995502
v -1.8134673 1.6150674 -2.4053054
vn 0.0401534 -0.0276187 -0.9988118
v -1.7380804 2.4766734 -2.3955622
vn -0.0146150 0.1210867 -0.9925344
v -3.1950731 4.8648410 -2.3502407
vn -0.0515220 0.0622301 -0.9967311
v -4.5193486 4.3133392 -2.3502407
vn -0.0302647 0.0084951 -0.9995058
v -4.2121835 1.9835033 -2.3999746
vn 0.0194992 -0.0321804 -0.9992919
v -2.6516328 1.5598842 -2.4352412
vn 0.0175717 0.0216906 -0.9996103
v -2.1864150 3.6676826 -2.5111434
vn -0.5871817 -0.3105673 0.7475062
v -8.1751690 2.5503609 0.6082977
vn -0.5500728 0.2030144 -0.8100649
v -8.1751690 3.1140876 -1.2540990
vn -0.0414883 0.0249983 0.9988262
v -7.6446896 3.4307325 0.6082987
vn -0.9117051 0.3979682 0.1020549
v -8.1503677 3.9112849 0.0910525
vn 0.1037785 0.2376507 -0.9657910
v -7.6446891 3.2811542 -1.1559868
vn 0.0063491 -0.7029827 0.7111786
v -7.6446891 2.1393845 0.1973217
vn -0.8249414 -0.5312344 -0.1930325
v -8.1649609 2.1433082 -0.5938066
vn -0.7614923 -0.6215728 0.1837848
v -7.4618678 0.0888970 4.2730641
vn -0.0558954 -0.7390093 0.6713725
v -1.4923730 0.0888970 5.2378631
vn -0.0312149 0.5854638 0.8100974
v -1.4923739 6.1219859 5.2378631
vn -0.0981612 0.7426861 0.6624061
v -4.4771209 6.1219859 4.8810430
vn 0.0929353 0.8705733 -0.4831822
v -4.5112629 6.0322671 -3.1905305
vn 0.0394827 0.7638302 -0.6442084
v -1.4647590 6.0323000 -2.6042390
vn -0.8057085 0.1525660 0.5723264
v -8.1191864 4.1109562 4.1920662
vn -0.8165517 -0.0818178 0.5714449
v -8.1191864 2.0999269 4.1920662
vn -0.0616909 0.0009877 0.9980948
v -1.6238370 4.1109562 5.2378631
vn -0.0628083 -0.0013686 0.9980247
v -1.6238370 2.0999269 5.2378631
vn -0.1599278 0.0055314 0.9871132
v -4.8715119 4.1109562 4.8274660
vn -0.1576761 -0.0027890 0.9874870
v -4.8715119 2.0999269 4.8274660
vn -0.4464545 0.4069516 0.7969121
v -7.4620314 6.1223149 4.2752943
vn -0.1552895 -0.4727645 0.8673978
v -4.4736862 0.0891406 4.8813915
vn -0.1920050 -0.0046671 0.9813828
v -7.5094619 2.0999269 4.3113570
vn -0.1919997 0.0088478 0.9813551
v -7.5094619 4.1109562 4.3113570
vn 0.6557100 0.2920624 -0.6962355
v -7.4487982 3.9783759 -3.6914735
vn 0.3787006 -0.3741085 -0.8465393
v -7.4487963 2.2325103 -3.6920159
vn -0.5840722 -0.4443564 -0.6792696
v -7.8008838 2.2325490 -3.7856100
vn -0.1505237 0.6052923 -0.7816418
v -7.8008838 3.9783330 -3.7856100
vn 0.6937399 0.7097974 0.1221172
v -7.4488001 3.9783330 -10.2138891
vn 0.7017691 -0.7097833 0.0610566
v -7.4488001 2.2325490 -10.2138891
vn -0.7026598 0.7093356 -0.0557881
v -7.8008852 3.9783330 -10.2138891
vn -0.6959974 -0.7093227 -0.1115757
v -7.8008852 2.2325490 -10.2138891
vn 0.4835174 0.7306789 0.4819952
v -6.3234472 3.9783330 -14.4268074
vn 0.5947226 -0.7306789 0.3352812
v -6.3234472 2.2325490 -14.4268074
vn -0.6033192 0.7302552 -0.3205203
v -6.7498922 3.9783330 -14.5425129
vn -0.4970011 -0.7302552 -0.4687401
v -6.7498922 2.2325490 -14.5425129
vn 0.1698971 0.7094963 0.6839226
v -3.1947651 3.9783330 -16.2795658
vn 0.2688535 -0.7148427 0.6455368
v -3.1947651 2.2325490 -16.2795658
vn -0.2794463 0.7155142 -0.6402728
v -3.4954200 3.9783330 -16.6033707
vn -0.1848586 -0.7096697 -0.6798502
v -3.4954200 2.2325490 -16.6033707
vn -0.2168257 0.9132276 0.3449669
v -0.9380430 6.0323000 -1.2920650
vn -0.6762871 0.6244577 -0.3907536
v -7.3237958 6.0323000 -3.8014855
vn -0.6217948 0.7433472 -0.2465892
v -0.9380430 6.0323000 -1.7700289
vn -0.4944706 -0.1798331 -0.8503875
v -7.9689527 2.1298234 -3.8014858
vn -0.4898384 0.1032072 -0.8656828
v -7.9689527 4.0810604 -3.8014860
vn -0.0265463 -0.2565840 -0.9661574
v -7.3237748 0.1785758 -3.8013153
vn 0.1081099 -0.5931689 -0.7977863
v -1.8099687 0.1785756 -2.6466470
vn -0.3709273 -0.9264002 -0.0647734
v -7.3240376 0.1786636 3.5184689
vn -0.7225914 0.6073075 0.3302110
v -0.9380440 8.5218086 -3.1883399
vn -0.7212492 -0.5213506 -0.4560628
v -0.9380440 8.0657282 -3.3313079
vn -0.7133073 0.7006112 0.0183519
v -0.9380440 9.9694252 -8.0069580
vn -0.7141331 -0.6892177 -0.1224454
v -0.9380440 9.6077194 -8.0497885
vn -0.7090912 0.6822374 -0.1781624
v -0.9380450 9.5573206 -11.9000454
vn -0.7089374 -0.6940129 0.1255145
v -0.9380450 9.2028103 -11.8164463
vn -0.7317926 0.4417733 -0.5189567
v -0.9380450 8.3914843 -15.3012896
vn -0.7326738 -0.5673308 0.3759320
v -0.9380450 8.1164322 -15.0625143
vn -0.9007677 0.0808006 -0.4267188
v -0.9380460 4.9495101 -16.9525566
vn -0.4275835 -0.1767608 0.8865258
v -0.9380460 4.8503919 -16.6020699
vn -0.1221295 -0.6915499 -0.7119291
v -1.4466341 2.2325490 -16.8781242
vn -0.3947672 0.5348066 0.7470882
v -0.9457410 3.9783330 -16.4766006
vn -0.3174706 0.2197240 -0.9224607
v -0.9457410 3.9783330 -16.8639450
vn 0.5162816 0.5353256 0.6684908
v 7.4618678 6.1219859 4.2730641
vn 0.1150258 -0.7454714 0.6565376
v 4.4771209 0.0888970 4.8810430
vn 0.0983897 0.7428768 0.6621584
v 4.4771209 6.1219859 4.8810430
vn -0.0747666 0.8215592 -0.5651996
v 1.6499265 6.0327020 -2.6159763
vn 0.8056896 0.1527994 0.5722907
v 8.1191864 4.1109562 4.1920662
vn 0.9098368 -0.0927409 0.4044702
v 8.1191864 2.0999269 4.1920662
vn 0.4904755 0.0988160 -0.8658344
v 7.9689512 4.0810604 -3.8014860
vn 0.7022945 -0.6078625 -0.3705209
v -6.5071049 5.6521468 -2.2582970
vn 0.0616908 0.0009878 0.9980949
v 1.6238379 4.1109562 5.2378631
vn 0.0753639 -0.0016422 0.9971548
v 1.6238379 2.0999269 5.2378631
vn 0.1600480 0.0053734 0.9870946
v 4.8715119 4.1109562 4.8274670
vn 0.1576728 -0.0027569 0.9874876
v 4.8715119 2.0999269 4.8274670
vn 0.1306228 0.7473823 0.6514271
v 6.9015069 6.1219859 4.3872070
vn 0.1040691 -0.3603998 -0.9269745
v 7.3236680 0.1784638 -3.7985311
vn 0.5920371 -0.7105756 0.3802294
v 7.4618502 0.0887358 4.2733073
vn -0.1991334 0.3178422 -0.9269964
v 6.7738032 6.0323000 -3.6790249
vn -0.3753700 -0.3641397 -0.8523495
v 7.4487982 2.2325230 -3.6910305
vn -0.5375733 0.1920303 -0.8210599
v 7.4487987 3.9783933 -3.6929753
vn 0.1932510 -0.0096458 0.9811019
v 7.5094628 2.0999269 4.3113570
vn 0.1932607 0.0112719 0.9810827
v 7.5094628 4.1109562 4.3113570
vn 0.5834409 -0.4458110 -0.6788589
v 7.8008838 2.2325490 -3.7856100
vn 0.1514679 0.6039023 -0.7825341
v 7.8008838 3.9783330 -3.7856100
vn -0.6937339 0.7098032 0.1221177
v 7.4487991 3.9783330 -10.2138901
vn -0.7017690 -0.7097833 0.0610572
v 7.4487991 2.2325490 -10.2138901
vn 0.7026598 0.7093356 -0.0557882
v 7.8008828 3.9783330 -10.2138882
vn 0.6959930 -0.7093269 -0.1115759
v 7.8008828 2.2325490 -10.2138882
vn -0.4835173 0.7306789 0.4819953
v 6.3234458 3.9783330 -14.4268074
vn -0.5947225 -0.7306789 0.3352812
v 6.3234458 2.2325490 -14.4268074
vn 0.6033192 0.7302552 -0.3205203
v 6.7498899 3.9783330 -14.5425138
vn 0.4970011 -0.7302552 -0.4687401
v 6.7498899 2.2325490 -14.5425138
vn -0.1698970 0.7094963 0.6839226
v 3.1947629 3.9783330 -16.2795658
vn -0.2688534 -0.7148427 0.6455368
v 3.1947629 2.2325490 -16.2795658
vn 0.2794463 0.7155142 -0.6402728
v 3.4954190 3.9783330 -16.6033707
vn 0.1848586 -0.7096697 -0.6798502
v 3.4954190 2.2325490 -16.6033707
vn -0.1665860 0.0312556 0.9855314
v -0.0000010 3.9783330 -16.6456337
vn -0.3228054 0.0670438 -0.9440878
v -0.0000010 3.9783330 -17.0874863
vn 0.0000000 -0.7075180 -0.7066953
v -0.0000010 2.2325490 -17.0874863
vn 0.0447223 -0.3845893 0.9220038
v 1.4923737 0.0888970 5.2378631
vn 0.0312149 0.5854638 0.8100975
v 1.4923730 6.1219859 5.2378631
vn 0.0000000 0.0000000 1.0000000
v 0.0000000 2.0999269 5.2378631
vn 0.0000000 0.0000000 1.0000000
v 0.0000000 4.1109562 5.2378631
vn 0.1540222 0.9571565 0.2452112
v 0.9380429 6.0323000 -1.2920650
vn -0.1287820 -0.7448276 -0.6547114
v 4.3942738 0.1785830 -3.1491983
vn 0.4938799 -0.1809682 -0.8504900
v 7.9689512 2.1298220 -3.8014860
vn -0.4872610 0.7825136 0.3876201
v 0.0000000 6.0323000 -1.2920650
vn 0.3395890 0.9198086 -0.1965493
v 7.3237972 6.0323000 -3.8014870
vn 0.7805899 0.5430530 -0.3094718
v 0.9380430 6.0323000 -1.7700289
vn -0.2964752 0.1671898 -0.9402925
v -0.0000000 6.0323000 -1.7700289
vn -0.0307422 -0.8318558 -0.5541397
v 1.4647585 0.1785830 -2.6042390
vn 0.7225914 0.6073076 0.3302110
v 0.9380440 8.5218086 -3.1883399
vn -0.4632010 0.6699745 0.5801543
v -0.0000000 8.5218086 -3.1883399
vn 0.7212488 -0.5213510 -0.4560628
v 0.9380440 8.0657282 -3.3313079
vn -0.4617893 -0.7727463 -0.4354467
v -0.0000000 8.0657282 -3.3313079
vn 0.7133080 0.7006105 0.0183517
v 0.9380440 9.9694252 -8.0069580
vn -0.4535381 0.8798260 0.1421597
v -0.0000010 9.9694252 -8.0069580
vn 0.7141325 -0.6892183 -0.1224455
v 0.9380430 9.6077194 -8.0497885
vn -0.4543882 -0.8903204 -0.0293434
v -0.0000010 9.6077194 -8.0497885
vn 0.7090915 0.6822370 -0.1781625
v 0.9380440 9.5573206 -11.9000454
vn -0.4492268 0.8789451 -0.1601593
v 0.0000000 9.5573206 -11.9000454
vn 0.7089374 -0.6940129 0.1255145
v 0.9380440 9.2028103 -11.8164463
vn -0.4490704 -0.8654705 0.2220287
v 0.0000000 9.2028103 -11.8164463
vn 0.7317926 0.4417733 -0.5189567
v 0.9380440 8.3914843 -15.3012896
vn -0.4730171 0.7330149 -0.4888190
v -0.0000010 8.3914843 -15.3012896
vn 0.7326738 -0.5673309 0.3759319
v 0.9380440 8.1164322 -15.0625143
vn -0.4739704 -0.5691030 0.6719181
v -0.0000010 8.1164322 -15.0625153
vn 0.9007677 0.0808010 -0.4267187
v 0.9380440 4.9495101 -16.9525566
vn -0.2500878 0.2271329 -0.9412050
v -0.0000010 4.9495101 -16.9525566
vn 0.4275835 -0.1767606 0.8865258
v 0.9380440 4.8503919 -16.6020699
vn -0.7138590 -0.1699977 0.6793425
v -0.0000010 4.8503909 -16.6020699
vn 0.1221294 -0.6915500 -0.7119291
v 1.4466320 2.2325490 -16.8781242
vn 0.0000000 -0.5674366 0.8234171
v -0.0000028 2.2284448 -16.6367817
vn 0.3947671 0.5348070 0.7470880
v 0.9457400 3.9783330 -16.4766006
vn 0.3174705 0.2197241 -0.9224608
v 0.9457400 3.9783330 -16.8639450
vn -0.1181985 -0.1720857 -0.9779651
v 1.3786980 0.5587350 -2.6644781
vn 0.0586644 0.4713119 -0.8800134
v -1.5618008 0.5585738 -2.6731296
vn 0.7554708 -0.1435532 -0.6392624
v -6.5065184 5.6522446 -3.5986917
vn 0.1212402 0.1558479 -0.9803123
v -1.3786980 5.6521468 -2.6644781
vn 0.7761725 0.0973546 -0.6229594
v -7.0803180 2.2565391 -3.6006291
vn 0.7692542 -0.1529779 -0.6203593
v -7.0803180 3.9543440 -3.6006291
vn 0.5988163 0.3856419 -0.7019256
v -6.5071058 0.5587350 -3.5996649
vn -0.5976645 -0.3814650 -0.7051820
v 6.5071049 5.6521468 -3.5996661
vn -0.0559748 -0.4578703 -0.8872551
v 1.5334611 5.6523042 -2.6680052
vn -0.7693094 0.1527347 -0.6203509
v 7.0803180 2.2565391 -3.6006300
vn -0.7754227 -0.0978478 -0.6238154
v 7.0803180 3.9543440 -3.6006300
vn -0.4151163 0.0802296 -0.9062238
v 6.5065184 0.5586374 -3.5986922
vn 0.9252272 0.2044702 -0.3196040
v -7.0803180 2.2565386 -2.2582970
vn 0.5919852 -0.0642468 -0.8033841
v -7.0803180 3.9543440 -2.2582970
vn 0.2423374 0.5933779 -0.7675775
v -6.5071063 0.5587350 -2.2582970
vn -0.2423354 -0.5933759 -0.7675797
v 6.5071049 5.6521468 -2.2582974
vn -0.7022948 0.6078624 -0.3705204
v 6.5071063 0.5587350 -2.2582977
vn -0.5919849 0.0642468 -0.8033842
v 7.0803180 2.2565377 -2.2582979
vn -0.9252269 -0.2044707 -0.3196044
v 7.0803180 3.9543440 -2.2582970
vn -0.0029067 -0.9979990 -0.0631633
v 1.4647572 0.1785830 4.3614082
vn 0.0000084 0.9989233 -0.0463930
v -0.0000153 6.0322976 4.5563054
vn -0.9825395 -0.1618583 -0.0917500
v -7.9689512 2.1298220 3.2986851
vn -0.9835267 0.1597486 -0.0845912
v -7.9689512 4.0810609 3.2986851
vn -0.4894450 0.8671784 -0.0918979
v -7.3238029 6.0322957 3.3710949
vn -0.0087911 -0.9987747 -0.0487018
v 4.3942780 0.1785830 3.9835610
vn 0.5801911 -0.8125723 -0.0557190
v 7.3237972 0.1785831 3.3706787
vn 0.5735357 0.8117378 -0.1101755
v 7.3237972 6.0323000 3.3706300
vn 0.9834452 -0.1594921 -0.0860104
v 7.9689512 2.1298220 3.2986851
vn 0.9835277 0.1597427 -0.0845912
v 7.9689512 4.0810609 3.2986851
vn -0.0106911 0.9983822 -0.0558455
v 6.7734318 6.0323000 3.4857786
# 193 vertices, 0 vertices normals


usemtl material_0
f 53//53 50//50 44//44
f 187//187 50//50 41//41
f 187//187 41//41 184//184
f 184//184 41//41 40//40
f 77//77 75//75 76//76
f 133//133 139//139 164//164
f 133//133 164//164 175//175
f 131//131 129//129 40//40
f 131//131 40//40 46//46
f 46//46 40//40 41//41
f 46//46 41//41 48//48
f 39//39 47//47 49//49
f 39//39 49//49 51//51
f 47//47 46//46 48//48
f 47//47 48//48 49//49
f 128//128 130//130 47//47
f 128//128 47//47 39//39
f 130//130 131//131 46//46
f 130//130 46//46 47//47
f 104//104 133//133 175//175
f 43//43 94//94 172//172
f 43//43 172//172 167//167
f 54//54 42//42 166//166
f 54//54 166//166 169//169
f 74//74 54//54 57//57
f 51//51 52//52 45//45
f 51//51 45//45 38//38
f 52//52 53//53 44//44
f 52//52 44//44 45//45
f 49//49 48//48 53//53
f 49//49 53//53 52//52
f 51//51 49//49 52//52
f 73//73 74//74 57//57
f 73//73 57//57 56//56
f 75//75 73//73 55//55
f 74//74 71//71 42//42
f 74//74 42//42 54//54
f 48//48 41//41 50//50
f 48//48 50//50 53//53
f 55//55 73//73 56//56
f 55//55 56//56 61//61
f 55//55 61//61 59//59
f 58//58 59//59 63//63
f 58//58 63//63 62//62
f 54//54 55//55 59//59
f 54//54 59//59 58//58
f 56//56 57//57 60//60
f 56//56 60//60 61//61
f 57//57 54//54 58//58
f 57//57 58//58 60//60
f 65//65 64//64 68//68
f 65//65 68//68 69//69
f 61//61 60//60 64//64
f 61//61 64//64 65//65
f 60//60 58//58 62//62
f 60//60 62//62 64//64
f 59//59 61//61 65//65
f 59//59 65//65 63//63
f 161//161 88//88 127//127
f 64//64 62//62 66//66
f 64//64 66//66 68//68
f 63//63 65//65 69//69
f 63//63 69//69 67//67
f 62//62 63//63 67//67
f 62//62 67//67 66//66
f 89//89 161//161 125//125
f 88//88 90//90 126//126
f 88//88 126//126 127//127
f 89//89 87//87 86//86
f 89//89 86//86 90//90
f 42//42 43//43 167//167
f 42//42 167//167 166//166
f 75//75 55//55 168//168
f 75//75 168//168 170//170
f 184//184 40//40 129//129
f 70//70 135//135 141//141
f 70//70 141//141 78//78
f 77//77 76//76 139//139
f 77//77 139//139 183//183
f 185//185 186//186 74//74
f 185//185 74//74 73//73
f 77//77 185//185 73//73
f 42//42 184//184 70//70
f 42//42 70//70 72//72
f 186//186 187//187 71//71
f 186//186 71//71 74//74
f 42//42 72//72 43//43
f 43//43 72//72 138//138
f 43//43 138//138 94//94
f 77//77 73//73 75//75
f 138//138 72//72 79//79
f 138//138 79//79 143//143
f 72//72 70//70 78//78
f 72//72 78//78 79//79
f 78//78 141//141 145//145
f 78//78 145//145 80//80
f 143//143 79//79 81//81
f 143//143 81//81 147//147
f 79//79 78//78 80//80
f 79//79 80//80 81//81
f 151//151 83//83 85//85
f 151//151 85//85 155//155
f 80//80 145//145 149//149
f 80//80 149//149 82//82
f 147//147 81//81 83//83
f 147//147 83//83 151//151
f 81//81 80//80 82//82
f 81//81 82//82 83//83
f 83//83 82//82 84//84
f 83//83 84//84 85//85
f 82//82 149//149 153//153
f 82//82 153//153 84//84
f 125//125 159//159 87//87
f 125//125 87//87 89//89
f 84//84 153//153 157//157
f 84//84 157//157 86//86
f 155//155 85//85 87//87
f 155//155 87//87 159//159
f 85//85 84//84 86//86
f 85//85 86//86 87//87
f 68//68 66//66 89//89
f 68//68 89//89 90//90
f 69//69 68//68 90//90
f 69//69 90//90 88//88
f 66//66 67//67 161//161
f 66//66 161//161 89//89
f 67//67 69//69 88//88
f 67//67 88//88 161//161
f 90//90 86//86 157//157
f 90//90 157//157 126//126
f 110//110 95//95 91//91
f 110//110 91//91 103//103
f 193//193 184//184 93//93
f 193//193 93//93 103//103
f 184//184 129//129 93//93
f 55//55 54//54 169//169
f 55//55 169//169 168//168
f 131//131 99//99 129//129
f 99//99 101//101 93//93
f 99//99 93//93 129//129
f 128//128 92//92 102//102
f 128//128 102//102 100//100
f 100//100 102//102 101//101
f 100//100 101//101 99//99
f 128//128 100//100 130//130
f 130//130 100//100 99//99
f 130//130 99//99 131//131
f 106//106 108//108 174//174
f 106//106 174//174 171//171
f 76//76 75//75 170//170
f 76//76 170//170 165//165
f 139//139 76//76 165//165
f 139//139 165//165 164//164
f 97//97 112//112 108//108
f 189//189 104//104 134//134
f 105//105 96//96 109//109
f 109//109 96//96 95//95
f 109//109 95//95 110//110
f 102//102 109//109 110//110
f 102//102 110//110 101//101
f 92//92 105//105 109//109
f 92//92 109//109 102//102
f 134//134 111//111 112//112
f 134//134 112//112 97//97
f 104//104 107//107 134//134
f 97//97 108//108 106//106
f 97//97 106//106 136//136
f 189//189 133//133 104//104
f 190//190 193//193 103//103
f 190//190 103//103 91//91
f 101//101 110//110 103//103
f 101//101 103//103 93//93
f 107//107 111//111 134//134
f 107//107 114//114 116//116
f 107//107 116//116 111//111
f 113//113 117//117 118//118
f 113//113 118//118 114//114
f 108//108 113//113 114//114
f 108//108 114//114 107//107
f 111//111 116//116 115//115
f 111//111 115//115 112//112
f 112//112 115//115 113//113
f 112//112 113//113 108//108
f 120//120 124//124 123//123
f 120//120 123//123 119//119
f 116//116 120//120 119//119
f 116//116 119//119 115//115
f 115//115 119//119 117//117
f 115//115 117//117 113//113
f 114//114 118//118 120//120
f 114//114 120//120 116//116
f 161//161 127//127 160//160
f 119//119 123//123 121//121
f 119//119 121//121 117//117
f 118//118 122//122 124//124
f 118//118 124//124 120//120
f 117//117 121//121 122//122
f 117//117 122//122 118//118
f 162//162 125//125 161//161
f 160//160 127//127 126//126
f 160//160 126//126 163//163
f 162//162 163//163 156//156
f 162//162 156//156 158//158
f 107//107 104//104 175//175
f 107//107 175//175 173//173
f 94//94 106//106 171//171
f 94//94 171//171 172//172
f 108//108 107//107 173//173
f 108//108 173//173 174//174
f 132//132 140//140 141//141
f 132//132 141//141 135//135
f 191//191 134//134 97//97
f 191//191 97//97 192//192
f 189//189 134//134 191//191
f 188//188 183//183 139//139
f 188//188 139//139 133//133
f 189//189 188//188 133//133
f 136//136 132//132 184//184
f 136//136 184//184 193//193
f 192//192 97//97 136//136
f 192//192 136//136 190//190
f 106//106 94//94 132//132
f 106//106 132//132 136//136
f 94//94 137//137 132//132
f 94//94 138//138 137//137
f 141//141 145//145 147//147
f 141//141 147//147 143//143
f 135//135 141//141 143//143
f 135//135 143//143 138//138
f 138//138 143//143 142//142
f 138//138 142//142 137//137
f 137//137 142//142 140//140
f 137//137 140//140 132//132
f 145//145 149//149 151//151
f 145//145 151//151 147//147
f 140//140 144//144 145//145
f 140//140 145//145 141//141
f 143//143 147//147 146//146
f 143//143 146//146 142//142
f 142//142 146//146 144//144
f 142//142 144//144 140//140
f 151//151 155//155 154//154
f 151//151 154//154 150//150
f 144//144 148//148 149//149
f 144//144 149//149 145//145
f 147//147 151//151 150//150
f 147//147 150//150 146//146
f 146//146 150//150 148//148
f 146//146 148//148 144//144
f 153//153 157//157 159//159
f 153//153 159//159 155//155
f 150//150 154//154 152//152
f 150//150 152//152 148//148
f 149//149 153//153 155//155
f 149//149 155//155 151//151
f 148//148 152//152 153//153
f 148//148 153//153 149//149
f 125//125 162//162 158//158
f 125//125 158//158 159//159
f 152//152 156//156 157//157
f 152//152 157//157 153//153
f 155//155 159//159 158//158
f 155//155 158//158 154//154
f 154//154 158//158 156//156
f 154//154 156//156 152//152
f 123//123 163//163 162//162
f 123//123 162//162 121//121
f 124//124 160//160 163//163
f 124//124 163//163 123//123
f 121//121 162//162 161//161
f 121//121 161//161 122//122
f 122//122 161//161 160//160
f 122//122 160//160 124//124
f 163//163 126//126 157//157
f 163//163 157//157 156//156
f 126//126 125//125 159//159
f 126//126 159//159 157//157
f 169//169 166//166 98//98
f 169//169 98//98 177//177
f 166//166 179//179 98//98
f 174//174 173//173 181//181
f 174//174 181//181 182//182
f 170//170 168//168 176//176
f 170//170 176//176 178//178
f 168//168 169//169 177//177
f 168//168 177//177 176//176
f 164//164 165//165 178//178
f 165//165 170//170 178//178
f 171//171 174//174 182//182
f 171//171 182//182 179//179
f 172//172 171//171 179//179
f 167//167 172//172 179//179
f 166//166 167//167 179//179
f 173//173 175//175 180//180
f 173//173 180//180 181//181
f 175//175 164//164 178//178
f 175//175 178//178 180//180
f 177//177 98//98 179//179
f 178//178 176//176 177//177
f 182//182 181//181 179//179
f 180//180 178//178 181//181
f 181//181 178//178 177//177
f 181//181 177//177 179//179
f 95//95 192//192 190//190
f 95//95 190//190 91//91
f 105//105 92//92 188//188
f 105//105 188//188 189//189
f 92//92 128//128 183//183
f 92//92 183//183 188//188
f 105//105 189//189 191//191
f 105//105 191//191 96//96
f 96//96 191//191 192//192
f 96//96 192//192 95//95
f 132//132 135//135 184//184
f 136//136 193//193 190//190
f 44//44 50//50 187//187
f 44//44 187//187 186//186
f 51//51 77//77 39//39
f 38//38 45//45 185//185
f 38//38 185//185 77//77
f 45//45 44//44 186//186
f 45//45 186//186 185//185
f 38//38 77//77 51//51
f 39//39 77//77 183//183
f 39//39 183//183 128//128
f 70//70 184//184 135//135
f 71//71 187//187 42//42
f 42//42 187//187 184//184
f 9//9 10//10 12//12
f 8//8 9//9 12//12
f 1//1 7//7 12//12
f 11//11 1//1 12//12
f 10//10 6//6 12//12
f 7//7 8//8 12//12
f 6//6 11//11 12//12
f 29//29 30//30 25//25
f 28//28 30//30 29//29
f 27//27 30//30 22//22
f 22//22 30//30 28//28
f 26//26 30//30 27//27
f 4//4 5//5 10//10
f 4//4 10//10 9//9
f 3//3 2//2 8//8
f 5//5 6//6 10//10
f 2//2 4//4 9//9
f 2//2 9//9 8//8
f 7//7 3//3 8//8
f 13//13 15//15 17//17
f 13//13 17//17 16//16
f 15//15 18//18 14//14
f 13//13 18//18 15//15
f 16//16 18//18 13//13
f 22//22 28//28 23//23
f 20//20 25//25 30//30
f 20//20 30//30 21//21
f 24//24 29//29 25//25
f 24//24 25//25 20//20
f 23//23 28//28 29//29
f 23//23 29//29 19//19
f 21//21 30//30 26//26
f 19//19 29//29 24//24
f 31//31 37//37 36//36
f 32//32 35//35 37//37
f 32//32 34//34 35//35
f 34//34 31//31 33//33
f 31//31 36//36 33//33
f 34//34 32//32 37//37
f 31//31 34//34 37//37
# 368 faces, 0 coords texture

# End of File
